<svg xmlns="http://www.w3.org/2000/svg" xmlns:xlink="http://www.w3.org/1999/xlink" width="44" zoomAndPan="magnify" viewBox="0 0 33 32.999998" height="44" preserveAspectRatio="xMidYMid meet" version="1.0"><defs><clipPath id="efa144aa09"><path d="M 0 0 L 32.25 0 L 32.25 32.25 L 0 32.25 Z M 0 0 " clip-rule="nonzero"/></clipPath><clipPath id="648d905e9a"><path d="M 17.347656 9.640625 L 21.847656 9.640625 L 21.847656 14.140625 L 17.347656 14.140625 Z M 17.347656 9.640625 " clip-rule="nonzero"/></clipPath><clipPath id="1d6736a7e0"><path d="M 19 9.640625 L 21.847656 9.640625 L 21.847656 13 L 19 13 Z M 19 9.640625 " clip-rule="nonzero"/></clipPath><clipPath id="93ec620cfd"><path d="M 19 10 L 21.847656 10 L 21.847656 13 L 19 13 Z M 19 10 " clip-rule="nonzero"/></clipPath></defs><g clip-path="url(#efa144aa09)"><path fill="#000000" d="M 16.125 0 C 15.597656 0 15.070312 0.0273438 14.542969 0.078125 C 14.019531 0.128906 13.496094 0.207031 12.980469 0.308594 C 12.460938 0.414062 11.949219 0.542969 11.445312 0.695312 C 10.9375 0.847656 10.441406 1.023438 9.953125 1.226562 C 9.464844 1.429688 8.988281 1.65625 8.523438 1.902344 C 8.058594 2.152344 7.605469 2.425781 7.167969 2.71875 C 6.726562 3.011719 6.304688 3.324219 5.894531 3.660156 C 5.488281 3.996094 5.097656 4.347656 4.722656 4.722656 C 4.347656 5.097656 3.996094 5.488281 3.660156 5.894531 C 3.324219 6.304688 3.011719 6.726562 2.71875 7.167969 C 2.425781 7.605469 2.152344 8.058594 1.902344 8.523438 C 1.65625 8.988281 1.429688 9.464844 1.226562 9.953125 C 1.023438 10.441406 0.847656 10.9375 0.695312 11.445312 C 0.542969 11.949219 0.414062 12.460938 0.308594 12.980469 C 0.207031 13.496094 0.128906 14.019531 0.078125 14.542969 C 0.0273438 15.070312 0 15.597656 0 16.125 C 0 16.652344 0.0273438 17.179688 0.078125 17.707031 C 0.128906 18.230469 0.207031 18.753906 0.308594 19.269531 C 0.414062 19.789062 0.542969 20.300781 0.695312 20.804688 C 0.847656 21.3125 1.023438 21.808594 1.226562 22.296875 C 1.429688 22.785156 1.65625 23.261719 1.902344 23.726562 C 2.152344 24.191406 2.425781 24.644531 2.71875 25.082031 C 3.011719 25.523438 3.324219 25.945312 3.660156 26.355469 C 3.996094 26.761719 4.347656 27.152344 4.722656 27.527344 C 5.097656 27.902344 5.488281 28.253906 5.894531 28.589844 C 6.304688 28.925781 6.726562 29.238281 7.167969 29.53125 C 7.605469 29.824219 8.058594 30.097656 8.523438 30.347656 C 8.988281 30.59375 9.464844 30.820312 9.953125 31.023438 C 10.441406 31.226562 10.9375 31.402344 11.445312 31.554688 C 11.949219 31.707031 12.460938 31.835938 12.980469 31.941406 C 13.496094 32.042969 14.019531 32.121094 14.542969 32.171875 C 15.070312 32.222656 15.597656 32.25 16.125 32.25 C 16.652344 32.25 17.179688 32.222656 17.707031 32.171875 C 18.230469 32.121094 18.753906 32.042969 19.269531 31.941406 C 19.789062 31.835938 20.300781 31.707031 20.804688 31.554688 C 21.3125 31.402344 21.808594 31.226562 22.296875 31.023438 C 22.785156 30.820312 23.261719 30.59375 23.726562 30.347656 C 24.191406 30.097656 24.644531 29.824219 25.082031 29.53125 C 25.523438 29.238281 25.945312 28.925781 26.355469 28.589844 C 26.761719 28.253906 27.152344 27.902344 27.527344 27.527344 C 27.902344 27.152344 28.253906 26.761719 28.589844 26.355469 C 28.925781 25.945312 29.238281 25.523438 29.53125 25.082031 C 29.824219 24.644531 30.097656 24.191406 30.347656 23.726562 C 30.59375 23.261719 30.820312 22.785156 31.023438 22.296875 C 31.226562 21.808594 31.402344 21.3125 31.554688 20.804688 C 31.707031 20.300781 31.835938 19.789062 31.941406 19.269531 C 32.042969 18.753906 32.121094 18.230469 32.171875 17.707031 C 32.222656 17.179688 32.25 16.652344 32.25 16.125 C 32.25 15.597656 32.222656 15.070312 32.171875 14.542969 C 32.121094 14.019531 32.042969 13.496094 31.941406 12.980469 C 31.835938 12.460938 31.707031 11.949219 31.554688 11.445312 C 31.402344 10.9375 31.222656 10.441406 31.023438 9.953125 C 30.820312 9.464844 30.59375 8.988281 30.34375 8.523438 C 30.097656 8.058594 29.824219 7.605469 29.53125 7.167969 C 29.238281 6.726562 28.925781 6.304688 28.589844 5.894531 C 28.253906 5.488281 27.898438 5.097656 27.527344 4.722656 C 27.152344 4.351562 26.761719 3.996094 26.355469 3.660156 C 25.945312 3.324219 25.523438 3.011719 25.082031 2.71875 C 24.644531 2.425781 24.191406 2.152344 23.726562 1.90625 C 23.261719 1.65625 22.785156 1.429688 22.296875 1.226562 C 21.808594 1.027344 21.3125 0.847656 20.804688 0.695312 C 20.300781 0.542969 19.789062 0.414062 19.269531 0.308594 C 18.753906 0.207031 18.230469 0.128906 17.707031 0.078125 C 17.179688 0.0273438 16.652344 0 16.125 0 Z M 25.910156 23.105469 C 25.703125 23.449219 25.464844 23.773438 25.195312 24.074219 C 24.925781 24.375 24.628906 24.648438 24.308594 24.894531 C 23.988281 25.136719 23.648438 25.351562 23.285156 25.53125 C 22.925781 25.710938 22.550781 25.855469 22.160156 25.964844 C 21.773438 26.074219 21.375 26.144531 20.972656 26.179688 C 20.570312 26.214844 20.171875 26.210938 19.769531 26.167969 C 19.367188 26.125 18.972656 26.046875 18.585938 25.929688 C 18.199219 25.8125 17.828125 25.660156 17.46875 25.472656 C 15.183594 24.277344 13.128906 22.769531 11.300781 20.949219 C 9.476562 19.117188 7.964844 17.054688 6.773438 14.757812 C 6.585938 14.402344 6.433594 14.03125 6.320312 13.644531 C 6.203125 13.257812 6.125 12.863281 6.082031 12.464844 C 6.042969 12.0625 6.039062 11.664062 6.074219 11.261719 C 6.109375 10.859375 6.179688 10.464844 6.289062 10.078125 C 6.398438 9.6875 6.542969 9.316406 6.726562 8.953125 C 6.90625 8.59375 7.117188 8.253906 7.363281 7.933594 C 7.609375 7.613281 7.882812 7.320312 8.179688 7.050781 C 8.480469 6.785156 8.804688 6.546875 9.152344 6.339844 C 9.382812 6.199219 9.632812 6.109375 9.898438 6.070312 C 10.167969 6.03125 10.429688 6.042969 10.691406 6.109375 C 10.957031 6.171875 11.195312 6.285156 11.414062 6.445312 C 11.628906 6.605469 11.808594 6.804688 11.949219 7.035156 L 13.257812 9.226562 C 13.417969 9.496094 13.507812 9.789062 13.535156 10.097656 C 13.558594 10.410156 13.515625 10.714844 13.402344 11.007812 C 13.289062 11.296875 13.121094 11.550781 12.890625 11.765625 C 12.660156 11.980469 12.398438 12.132812 12.097656 12.226562 C 11.894531 12.285156 11.710938 12.386719 11.554688 12.53125 C 11.398438 12.671875 11.277344 12.84375 11.199219 13.042969 C 11.121094 13.242188 11.089844 13.445312 11.105469 13.660156 C 11.121094 13.871094 11.183594 14.070312 11.292969 14.253906 C 12.117188 15.628906 13.097656 16.886719 14.230469 18.019531 C 15.367188 19.15625 16.625 20.136719 18.003906 20.960938 C 18.378906 21.191406 18.773438 21.226562 19.183594 21.074219 C 19.644531 20.902344 19.933594 20.574219 20.046875 20.097656 C 20.144531 19.804688 20.300781 19.546875 20.515625 19.328125 C 20.730469 19.105469 20.984375 18.941406 21.273438 18.835938 C 21.5625 18.726562 21.859375 18.6875 22.164062 18.714844 C 22.472656 18.742188 22.757812 18.835938 23.023438 18.992188 L 25.214844 20.300781 C 25.445312 20.441406 25.640625 20.621094 25.800781 20.839844 C 25.960938 21.058594 26.074219 21.296875 26.140625 21.558594 C 26.207031 21.824219 26.21875 22.085938 26.179688 22.355469 C 26.136719 22.621094 26.050781 22.871094 25.910156 23.105469 Z M 25.910156 23.105469 " fill-opacity="1" fill-rule="nonzero"/></g><g clip-path="url(#648d905e9a)"><path fill="#000000" d="M 21.394531 13.035156 C 21.164062 12.957031 20.871094 12.863281 20.585938 12.792969 C 20.527344 12.773438 20.394531 12.773438 20.335938 12.871094 L 20.152344 13.152344 C 20.136719 13.171875 20.117188 13.183594 20.097656 13.191406 C 20.042969 13.195312 19.984375 13.183594 19.941406 13.148438 C 19.824219 13.070312 19.371094 12.652344 19.105469 12.394531 C 18.839844 12.113281 18.4375 11.660156 18.351562 11.542969 C 18.320312 11.5 18.304688 11.441406 18.308594 11.386719 C 18.3125 11.359375 18.324219 11.335938 18.347656 11.328125 L 18.621094 11.144531 C 18.6875 11.101562 18.71875 10.949219 18.703125 10.890625 C 18.648438 10.664062 18.578125 10.410156 18.46875 10.078125 C 18.441406 10.007812 18.335938 9.921875 18.164062 9.980469 C 17.9375 10.078125 17.722656 10.21875 17.542969 10.402344 C 17.488281 10.453125 17.441406 10.507812 17.398438 10.566406 C 17.386719 10.578125 17.382812 10.59375 17.382812 10.605469 C 17.347656 11.277344 17.792969 12.183594 18.519531 12.914062 C 19.222656 13.660156 20.121094 14.136719 20.796875 14.136719 C 20.824219 14.136719 20.847656 14.136719 20.871094 14.136719 C 20.886719 14.136719 20.898438 14.132812 20.910156 14.121094 C 20.96875 14.074219 21.019531 14.023438 21.074219 13.976562 C 21.21875 13.832031 21.335938 13.664062 21.429688 13.484375 C 21.453125 13.4375 21.472656 13.394531 21.496094 13.347656 C 21.515625 13.269531 21.558594 13.085938 21.394531 13.035156 Z M 18.21875 10.097656 C 18.265625 10.082031 18.328125 10.09375 18.347656 10.125 C 18.453125 10.453125 18.527344 10.703125 18.574219 10.921875 C 18.585938 10.960938 18.574219 11.015625 18.546875 11.035156 L 18.484375 11.078125 C 18.28125 10.804688 18.160156 10.480469 18.128906 10.140625 C 18.128906 10.140625 18.1875 10.113281 18.21875 10.097656 Z M 21.371094 13.292969 C 21.363281 13.324219 21.347656 13.351562 21.335938 13.378906 C 20.710938 13.277344 20.472656 13.097656 20.402344 13.035156 L 20.453125 12.957031 C 20.480469 12.921875 20.527344 12.921875 20.5625 12.929688 C 20.835938 12.996094 21.128906 13.09375 21.351562 13.164062 C 21.386719 13.171875 21.386719 13.242188 21.371094 13.292969 Z M 21.371094 13.292969 " fill-opacity="1" fill-rule="nonzero"/></g><g clip-path="url(#1d6736a7e0)"><path fill="#000000" d="M 19.378906 9.640625 C 19.339844 9.640625 19.3125 9.671875 19.3125 9.707031 C 19.3125 9.738281 19.347656 9.769531 19.378906 9.769531 C 20.671875 9.769531 21.710938 10.832031 21.710938 12.132812 C 21.710938 12.171875 21.746094 12.199219 21.777344 12.199219 C 21.808594 12.199219 21.839844 12.167969 21.839844 12.132812 C 21.847656 10.761719 20.738281 9.648438 19.378906 9.640625 Z M 19.378906 9.640625 " fill-opacity="1" fill-rule="nonzero"/></g><g clip-path="url(#93ec620cfd)"><path fill="#000000" d="M 20.53125 10.976562 C 20.839844 11.285156 21.011719 11.703125 21.011719 12.144531 C 21.011719 12.183594 21.042969 12.210938 21.074219 12.210938 C 21.105469 12.210938 21.136719 12.175781 21.136719 12.144531 C 21.136719 11.160156 20.347656 10.359375 19.371094 10.359375 C 19.335938 10.359375 19.308594 10.390625 19.308594 10.421875 C 19.308594 10.460938 19.335938 10.488281 19.367188 10.492188 C 19.367188 10.492188 19.371094 10.492188 19.371094 10.492188 C 19.808594 10.492188 20.222656 10.664062 20.53125 10.976562 Z M 20.53125 10.976562 " fill-opacity="1" fill-rule="nonzero"/></g><path fill="#000000" d="M 19.378906 11.246094 C 19.867188 11.246094 20.265625 11.648438 20.265625 12.144531 C 20.265625 12.183594 20.296875 12.210938 20.328125 12.210938 C 20.363281 12.210938 20.394531 12.175781 20.394531 12.144531 C 20.394531 11.574219 19.9375 11.113281 19.371094 11.113281 C 19.335938 11.113281 19.308594 11.144531 19.308594 11.175781 C 19.308594 11.207031 19.339844 11.246094 19.378906 11.246094 Z M 19.378906 11.246094 " fill-opacity="1" fill-rule="nonzero"/></svg>